<svg xmlns="http://www.w3.org/2000/svg" viewBox="0 0 33.1 35.65"><defs><style>.cls-1{fill:#3f3f3f;}</style></defs><title>Asset 1</title><g id="Layer_2" data-name="Layer 2"><g id="Layer_1-2" data-name="Layer 1"><path class="cls-1" d="M13.72,35.59H7.85A7.8,7.8,0,0,1,2,33.52a7.81,7.81,0,0,1-2-5.75V7.82A7.8,7.8,0,0,1,2,2a7.86,7.86,0,0,1,5.8-2h5.87a8,8,0,0,1,5.82,2,7.74,7.74,0,0,1,2.08,5.78V27.77a7.76,7.76,0,0,1-2.08,5.75A7.89,7.89,0,0,1,13.72,35.59ZM8.55,31.3H13q3.69,0,3.7-3.73V8q0-3.73-3.7-3.73H8.55Q4.91,4.29,4.91,8V27.57Q4.91,31.3,8.55,31.3Z"/><path class="cls-1" d="M32.24,35.65H29.05a.76.76,0,0,1-.86-.86V.92a.76.76,0,0,1,.86-.86h3.19a.76.76,0,0,1,.86.86V34.79A.76.76,0,0,1,32.24,35.65Z"/></g></g></svg>